<?xml version="1.0" encoding="iso-8859-1"?>
<!-- Generator: Adobe Illustrator 16.0.0, SVG Export Plug-In . SVG Version: 6.00 Build 0)  -->
<!DOCTYPE svg PUBLIC "-//W3C//DTD SVG 1.1//EN" "http://www.w3.org/Graphics/SVG/1.1/DTD/svg11.dtd">
<svg version="1.1" id="Layer_1" xmlns="http://www.w3.org/2000/svg" xmlns:xlink="http://www.w3.org/1999/xlink" x="0px" y="0px"
	 width="232.513px" height="65.506px" viewBox="0 0 232.513 65.506" style="enable-background:new 0 0 232.513 65.506;"
	 xml:space="preserve">
<g>
	<path style="fill:none;stroke:#589FD7;stroke-width:0.5;stroke-linecap:round;stroke-linejoin:round;stroke-miterlimit:10;" d="
		M64.875,12.872c-0.68,0.305-1.143,0.867-1.389,1.688c-0.246,0.821-0.369,2.133-0.369,3.938v35.719c0,1.805,0.128,3.117,0.387,3.938
		c0.258,0.821,0.726,1.384,1.406,1.688c0.68,0.305,1.781,0.492,3.305,0.562v1.441c-2.555-0.141-6.586-0.211-12.094-0.211
		c-5.532,0-9.773,0.07-12.727,0.211v-1.441c1.547-0.07,2.66-0.258,3.34-0.562c0.68-0.304,1.143-0.861,1.389-1.67
		s0.369-2.127,0.369-3.955V36.919H32.285v17.297c0,1.805,0.128,3.117,0.387,3.938c0.258,0.821,0.732,1.384,1.424,1.688
		c0.691,0.305,1.798,0.492,3.322,0.562v1.441c-2.812-0.141-6.82-0.211-12.023-0.211c-5.813,0-10.09,0.07-12.832,0.211v-1.441
		c1.547-0.07,2.666-0.258,3.357-0.562c0.691-0.304,1.16-0.867,1.406-1.688c0.246-0.82,0.369-2.132,0.369-3.938V18.497
		c0-1.805-0.129-3.117-0.387-3.938c-0.258-0.82-0.733-1.383-1.424-1.688c-0.691-0.304-1.799-0.492-3.322-0.562v-1.441
		c2.742,0.141,7.019,0.211,12.832,0.211c5.203,0,9.211-0.07,12.023-0.211v1.441c-1.547,0.07-2.667,0.258-3.357,0.562
		c-0.691,0.305-1.16,0.867-1.406,1.688c-0.246,0.821-0.369,2.133-0.369,3.938v16.98h16.207v-16.98c0-1.805-0.123-3.117-0.369-3.938
		c-0.246-0.82-0.715-1.383-1.406-1.688c-0.691-0.304-1.799-0.492-3.322-0.562v-1.441c2.953,0.141,7.195,0.211,12.727,0.211
		c5.484,0,9.515-0.07,12.094-0.211v1.441C66.668,12.38,65.555,12.568,64.875,12.872z"/>
	<path style="fill:none;stroke:#589FD7;stroke-width:0.5;stroke-linecap:round;stroke-linejoin:round;stroke-miterlimit:10;" d="
		M113.777,12.942c4.078,2.062,7.242,5.057,9.492,8.982c2.25,3.926,3.375,8.596,3.375,14.01c0,5.297-1.155,9.984-3.463,14.062
		c-2.309,4.078-5.525,7.242-9.65,9.492c-4.125,2.25-8.824,3.375-14.098,3.375c-5.438,0-10.195-1.031-14.273-3.094
		c-4.078-2.062-7.242-5.057-9.492-8.982c-2.25-3.925-3.375-8.596-3.375-14.01c0-5.296,1.154-9.984,3.463-14.062
		c2.308-4.078,5.52-7.242,9.633-9.492s8.818-3.375,14.115-3.375C104.941,9.849,109.699,10.88,113.777,12.942z M93,14.366
		c-1.781,2.145-3.159,5.133-4.131,8.965c-0.973,3.832-1.459,8.221-1.459,13.166c0,4.969,0.55,9.357,1.652,13.166
		c1.102,3.809,2.589,6.745,4.465,8.807c1.875,2.062,3.938,3.094,6.188,3.094c2.367,0,4.441-1.072,6.223-3.217
		c1.781-2.145,3.158-5.133,4.131-8.965c0.972-3.832,1.459-8.221,1.459-13.166c0-4.969-0.551-9.357-1.652-13.166
		c-1.102-3.809-2.59-6.744-4.465-8.807c-1.875-2.062-3.938-3.094-6.188-3.094C96.855,11.149,94.781,12.222,93,14.366z"/>
	<path style="fill:none;stroke:#589FD7;stroke-width:0.5;stroke-linecap:round;stroke-linejoin:round;stroke-miterlimit:10;" d="
		M152.467,12.872c-0.786,0.305-1.324,0.867-1.617,1.688c-0.294,0.821-0.439,2.133-0.439,3.938v37.16c0,1.359,0.093,2.35,0.281,2.971
		c0.188,0.621,0.527,1.037,1.02,1.248s1.288,0.316,2.391,0.316h2.391c1.664,0,3.485-0.844,5.467-2.531
		c1.98-1.688,3.756-3.908,5.326-6.662c1.569-2.754,2.624-5.619,3.164-8.596h1.652c-0.141,1.711-0.211,3.915-0.211,6.609
		c0,5.203,0.163,9.48,0.492,12.832c-3.258-0.141-8.754-0.211-16.488-0.211c-11.228,0-19.63,0.07-25.208,0.211v-1.441
		c1.547-0.07,2.666-0.258,3.357-0.562c0.691-0.304,1.16-0.867,1.406-1.688c0.246-0.82,0.369-2.132,0.369-3.938V18.497
		c0-1.805-0.129-3.117-0.387-3.938c-0.258-0.82-0.733-1.383-1.424-1.688c-0.691-0.304-1.799-0.492-3.322-0.562v-1.441
		c2.742,0.141,7.019,0.211,12.833,0.211c5.531,0,9.773-0.07,12.727-0.211v1.441C154.511,12.38,153.252,12.568,152.467,12.872z"/>
	<path style="fill:none;stroke:#589FD7;stroke-width:0.5;stroke-linecap:round;stroke-linejoin:round;stroke-miterlimit:10;" d="
		M221.918,59.226c0.75,0.738,1.488,1.131,2.215,1.178v1.441c-3.469-0.141-7.84-0.211-13.113-0.211c-5.484,0-9.516,0.07-12.094,0.211
		v-1.441c1.805-0.07,3.099-0.293,3.885-0.668c0.785-0.374,1.178-1.031,1.178-1.969c0-0.726-0.294-1.863-0.879-3.41l-4.289-11.812
		h-14.52l-1.23,3.234c-1.547,4.031-2.32,7.16-2.32,9.387c0,1.969,0.545,3.317,1.635,4.043c1.09,0.727,2.712,1.125,4.869,1.195v1.441
		c-3.586-0.141-6.728-0.211-9.422-0.211c-2.273,0-4.125,0.07-5.555,0.211v-1.441c1.172-0.188,2.29-0.926,3.357-2.215
		c1.066-1.289,2.149-3.363,3.252-6.223l15.996-41.098c1.031,0.094,2.297,0.141,3.797,0.141c1.499,0,2.754-0.047,3.762-0.141
		l17.438,44.93C220.489,57.345,221.167,58.487,221.918,59.226z M191.79,23.103l-6.926,18h13.465L191.79,23.103z"/>
</g>
<g>
	<path style="fill:none;stroke:#EE1D3A;stroke-width:0.5;stroke-linecap:round;stroke-linejoin:round;stroke-miterlimit:10;" d="
		M68.302,8.189c-0.68,0.305-1.143,0.867-1.389,1.688c-0.246,0.821-0.369,2.133-0.369,3.938v35.719c0,1.805,0.128,3.117,0.387,3.938
		c0.258,0.821,0.726,1.384,1.406,1.688c0.68,0.305,1.781,0.492,3.305,0.562v1.441c-2.555-0.141-6.586-0.211-12.094-0.211
		c-5.532,0-9.773,0.07-12.727,0.211v-1.441c1.547-0.07,2.66-0.258,3.34-0.562c0.68-0.304,1.143-0.861,1.389-1.67
		s0.369-2.127,0.369-3.955V32.236H35.712v17.297c0,1.805,0.128,3.117,0.387,3.938c0.258,0.821,0.732,1.384,1.424,1.688
		c0.691,0.305,1.798,0.492,3.322,0.562v1.441c-2.812-0.141-6.82-0.211-12.023-0.211c-5.813,0-10.09,0.07-12.832,0.211v-1.441
		c1.547-0.07,2.666-0.258,3.357-0.562c0.691-0.304,1.16-0.867,1.406-1.688c0.246-0.82,0.369-2.132,0.369-3.938V13.814
		c0-1.805-0.129-3.117-0.387-3.938c-0.258-0.82-0.733-1.383-1.424-1.688c-0.691-0.304-1.799-0.492-3.322-0.562V6.186
		c2.742,0.141,7.019,0.211,12.832,0.211c5.203,0,9.211-0.07,12.023-0.211v1.441c-1.547,0.07-2.667,0.258-3.357,0.562
		c-0.691,0.305-1.16,0.867-1.406,1.688c-0.246,0.821-0.369,2.133-0.369,3.938v16.98h16.207v-16.98c0-1.805-0.123-3.117-0.369-3.938
		c-0.246-0.82-0.715-1.383-1.406-1.688c-0.691-0.304-1.799-0.492-3.322-0.562V6.186c2.953,0.141,7.195,0.211,12.727,0.211
		c5.484,0,9.515-0.07,12.094-0.211v1.441C70.095,7.697,68.981,7.885,68.302,8.189z"/>
	<path style="fill:none;stroke:#EE1D3A;stroke-width:0.5;stroke-linecap:round;stroke-linejoin:round;stroke-miterlimit:10;" d="
		M117.204,8.26c4.078,2.062,7.242,5.057,9.492,8.982c2.25,3.926,3.375,8.596,3.375,14.01c0,5.297-1.155,9.984-3.463,14.062
		c-2.309,4.078-5.525,7.242-9.65,9.492c-4.125,2.25-8.824,3.375-14.098,3.375c-5.438,0-10.195-1.031-14.273-3.094
		c-4.078-2.062-7.242-5.057-9.492-8.982c-2.25-3.925-3.375-8.596-3.375-14.01c0-5.296,1.154-9.984,3.463-14.062
		c2.308-4.078,5.52-7.242,9.633-9.492s8.818-3.375,14.115-3.375C108.368,5.166,113.126,6.198,117.204,8.26z M96.427,9.684
		c-1.781,2.145-3.159,5.133-4.131,8.965c-0.973,3.832-1.459,8.221-1.459,13.166c0,4.969,0.55,9.357,1.652,13.166
		c1.102,3.809,2.589,6.745,4.465,8.807c1.875,2.062,3.938,3.094,6.188,3.094c2.367,0,4.441-1.072,6.223-3.217
		c1.781-2.145,3.158-5.133,4.131-8.965c0.972-3.832,1.459-8.221,1.459-13.166c0-4.969-0.551-9.357-1.652-13.166
		c-1.102-3.809-2.59-6.744-4.465-8.807c-1.875-2.062-3.938-3.094-6.188-3.094C100.282,6.467,98.208,7.539,96.427,9.684z"/>
	<path style="fill:none;stroke:#EE1D3A;stroke-width:0.5;stroke-linecap:round;stroke-linejoin:round;stroke-miterlimit:10;" d="
		M155.894,8.189c-0.786,0.305-1.324,0.867-1.617,1.688c-0.294,0.821-0.439,2.133-0.439,3.938v37.16c0,1.359,0.093,2.35,0.281,2.971
		c0.188,0.621,0.527,1.037,1.02,1.248s1.288,0.316,2.391,0.316h2.391c1.664,0,3.485-0.844,5.467-2.531
		c1.98-1.688,3.756-3.908,5.326-6.662c1.569-2.754,2.624-5.619,3.164-8.596h1.652c-0.141,1.711-0.211,3.915-0.211,6.609
		c0,5.203,0.163,9.48,0.492,12.832c-3.258-0.141-8.754-0.211-16.488-0.211c-11.228,0-19.63,0.07-25.208,0.211v-1.441
		c1.547-0.07,2.666-0.258,3.357-0.562c0.691-0.304,1.16-0.867,1.406-1.688c0.246-0.82,0.369-2.132,0.369-3.938V13.814
		c0-1.805-0.129-3.117-0.387-3.938c-0.258-0.82-0.732-1.383-1.424-1.688c-0.691-0.304-1.798-0.492-3.322-0.562V6.186
		c2.742,0.141,7.019,0.211,12.833,0.211c5.531,0,9.773-0.07,12.727-0.211v1.441C157.938,7.697,156.679,7.885,155.894,8.189z"/>
	<path style="fill:none;stroke:#EE1D3A;stroke-width:0.5;stroke-linecap:round;stroke-linejoin:round;stroke-miterlimit:10;" d="
		M225.345,54.543c0.75,0.738,1.488,1.131,2.215,1.178v1.441c-3.469-0.141-7.84-0.211-13.113-0.211c-5.484,0-9.516,0.07-12.094,0.211
		v-1.441c1.805-0.07,3.099-0.293,3.885-0.668c0.785-0.374,1.178-1.031,1.178-1.969c0-0.726-0.294-1.863-0.879-3.41l-4.289-11.812
		h-14.52l-1.23,3.234c-1.547,4.031-2.32,7.16-2.32,9.387c0,1.969,0.545,3.317,1.635,4.043c1.09,0.727,2.712,1.125,4.869,1.195v1.441
		c-3.586-0.141-6.728-0.211-9.422-0.211c-2.273,0-4.125,0.07-5.555,0.211v-1.441c1.172-0.188,2.29-0.926,3.357-2.215
		c1.066-1.289,2.149-3.363,3.252-6.223L198.31,6.186c1.031,0.094,2.297,0.141,3.797,0.141c1.499,0,2.754-0.047,3.762-0.141
		l17.438,44.93C223.916,52.662,224.594,53.805,225.345,54.543z M195.216,18.42l-6.926,18h13.465L195.216,18.42z"/>
</g>
</svg>
